{"accessors":[{"bufferView":0,"componentType":5126,"count":1272,"max":[30.0,0.5,30.0],"min":[-30.0,-0.5,-30.0],"normalized":false,"type":"VEC3"},{"bufferView":1,"componentType":5126,"count":1272,"max":[1.0,6.474052497651428e-05,0.9998661875724792,1.0],"min":[-0.9998666644096375,-2.157951530534774e-05,-1.0,-1.0],"normalized":false,"type":"VEC4"},{"bufferView":2,"componentType":5126,"count":1272,"max":[0.9998661875724792,1.0,0.9998661875724792],"min":[-0.9998667240142822,-1.0,-1.0],"normalized":false,"type":"VEC3"},{"bufferView":3,"componentType":5126,"count":1272,"max":[1.0,1.0],"min":[0.0,0.0],"normalized":false,"type":"VEC2"},{"bufferView":4,"componentType":5123,"count":1272,"max":[1271],"min":[0],"normalized":false,"type":"SCALAR"},{"bufferView":5,"componentType":5126,"count":1632,"max":[24.799999237060547,1.2999999523162842,22.200000762939453],"min":[-25.200000762939453,-0.5,-24.21180534362793],"normalized":false,"type":"VEC3"},{"bufferView":6,"componentType":5126,"count":1632,"max":[1.0,0.24387042224407196,1.0,1.0],"min":[-1.0,-1.0,-1.0,-1.0],"normalized":false,"type":"VEC4"},{"bufferView":7,"componentType":5126,"count":1632,"max":[0.9800682067871094,1.0,0.980059802532196],"min":[-0.9800689220428467,-1.0,-0.9800647497177124],"normalized":false,"type":"VEC3"},{"bufferView":8,"componentType":5126,"count":1632,"max":[1.0,1.0],"min":[0.0,0.0],"normalized":false,"type":"VEC2"},{"bufferView":9,"componentType":5123,"count":1632,"max":[1631],"min":[0],"normalized":false,"type":"SCALAR"},{"bufferView":10,"componentType":5126,"count":3844,"max":[110.0,0.0,110.0],"min":[-110.00003814697266,0.0,-110.00003814697266],"normalized":false,"type":"VEC3"},{"bufferView":11,"componentType":5126,"count":3844,"max":[1.0,0.0,-1.5259021893143654e-05,1.0],"min":[1.0,0.0,-1.5259021893143654e-05,1.0],"normalized":false,"type":"VEC4"},{"bufferView":12,"componentType":5126,"count":3844,"max":[0.0,1.0,-1.5259021893143654e-05],"min":[0.0,1.0,-1.5259021893143654e-05],"normalized":false,"type":"VEC3"},{"bufferView":13,"componentType":5126,"count":3844,"max":[1.0,1.0],"min":[0.0,0.0],"normalized":false,"type":"VEC2"},{"bufferView":14,"componentType":5123,"count":22326,"max":[3843],"min":[0],"normalized":false,"type":"SCALAR"},{"bufferView":15,"componentType":5126,"count":594,"max":[398.2936706542969,800.0,398.2936706542969],"min":[-398.2936706542969,0.0,-398.2936706542969],"normalized":false,"type":"VEC3"},{"bufferView":16,"componentType":5126,"count":594,"max":[1.0,0.0,1.0,1.0],"min":[-1.0,-2.157951530534774e-05,-1.0,1.0],"normalized":false,"type":"VEC4"},{"bufferView":17,"componentType":5126,"count":594,"max":[0.9989290833473206,1.0,0.9989290833473206],"min":[-0.9989298582077026,-1.0,-0.9989283680915833],"normalized":false,"type":"VEC3"},{"bufferView":18,"componentType":5126,"count":594,"max":[1.0,1.0],"min":[0.0,0.0],"normalized":false,"type":"VEC2"},{"bufferView":19,"componentType":5123,"count":3264,"max":[593],"min":[0],"normalized":false,"type":"SCALAR"},{"bufferView":20,"componentType":5126,"count":36,"max":[0.699999988079071,0.30000001192092896,0.42500001192092896],"min":[-0.699999988079071,-0.30000001192092896,-0.42500001192092896],"normalized":false,"type":"VEC3"},{"bufferView":21,"componentType":5126,"count":36,"max":[0.0,0.0,7.630093023180962e-05,-1.0],"min":[-1.0,-1.0,-1.0,-1.0],"normalized":false,"type":"VEC4"},{"bufferView":22,"componentType":5126,"count":36,"max":[1.0,1.0,1.0],"min":[-1.0,-1.0,-1.0],"normalized":false,"type":"VEC3"},{"bufferView":23,"componentType":5126,"count":36,"max":[1.0,1.0],"min":[0.0,0.0],"normalized":false,"type":"VEC2"},{"bufferView":24,"componentType":5121,"count":36,"max":[35],"min":[0],"normalized":false,"type":"SCALAR"},{"bufferView":25,"componentType":5126,"count":36,"max":[0.7250000238418579,0.03999999910593033,0.019999999552965164],"min":[-0.7250000238418579,-0.03999999910593033,-0.019999999552965164],"normalized":false,"type":"VEC3"},{"bufferView":26,"componentType":5126,"count":36,"max":[0.699999988079071,0.09000000357627869,0.42500001192092896],"min":[-0.699999988079071,-0.09000000357627869,-0.42500001192092896],"normalized":false,"type":"VEC3"},{"bufferView":27,"componentType":5126,"count":192,"max":[0.09000000357627869,0.02500000037252903,0.09000000357627869],"min":[-0.09000000357627869,-0.02500000037252903,-0.09000000357627869],"normalized":false,"type":"VEC3"},{"bufferView":28,"componentType":5126,"count":192,"max":[1.0,6.474052497651428e-05,0.997809112071991,1.0],"min":[-0.9978113770484924,-2.157951530534774e-05,-0.9978125691413879,-1.0],"normalized":false,"type":"VEC4"},{"bufferView":29,"componentType":5126,"count":192,"max":[0.9978091716766357,1.0,0.997809112071991],"min":[-0.9978113770484924,-1.0,-0.997808039188385],"normalized":false,"type":"VEC3"},{"bufferView":30,"componentType":5126,"count":192,"max":[1.0,1.0],"min":[0.0,0.0],"normalized":false,"type":"VEC2"},{"bufferView":31,"componentType":5121,"count":192,"max":[191],"min":[0],"normalized":false,"type":"SCALAR"},{"bufferView":32,"componentType":5126,"count":36,"max":[0.6000000238418579,0.029999999329447746,0.32499998807907104],"min":[-0.6000000238418579,-0.029999999329447746,-0.32499998807907104],"normalized":false,"type":"VEC3"},{"bufferView":33,"componentType":5126,"count":360,"max":[1.5,1.5,1.5],"min":[-1.5,-1.5,-1.5],"normalized":false,"type":"VEC3"},{"bufferView":34,"componentType":5126,"count":360,"max":[1.0,0.10932034999132156,1.0,1.0],"min":[-1.0,-0.15194955468177795,-1.0,1.0],"normalized":false,"type":"VEC4"},{"bufferView":35,"componentType":5126,"count":360,"max":[1.0,1.0,1.0],"min":[-1.0,-1.0,-1.0],"normalized":false,"type":"VEC3"},{"bufferView":36,"componentType":5126,"count":360,"max":[1.0,1.0],"min":[0.0,0.0],"normalized":false,"type":"VEC2"},{"bufferView":37,"componentType":5123,"count":360,"max":[359],"min":[0],"normalized":false,"type":"SCALAR"},{"bufferView":38,"componentType":5126,"count":2210,"max":[0.5993204116821289,0.6000000238418579,0.5993204116821289],"min":[-0.5993204116821289,-0.6000000238418579,-0.5993204116821289],"normalized":false,"type":"VEC3"},{"bufferView":39,"componentType":5126,"count":2210,"max":[1.0,0.0,1.0,1.0],"min":[-1.0,-2.157951530534774e-05,-1.0,1.0],"normalized":false,"type":"VEC4"},{"bufferView":40,"componentType":5126,"count":2210,"max":[0.9988680481910706,1.0,0.9988680481910706],"min":[-0.9988688230514526,-1.0,-0.9988672137260437],"normalized":false,"type":"VEC3"},{"bufferView":41,"componentType":5126,"count":2210,"max":[1.0,1.0],"min":[0.0,0.0],"normalized":false,"type":"VEC2"},{"bufferView":42,"componentType":5123,"count":12672,"max":[2209],"min":[0],"normalized":false,"type":"SCALAR"},{"bufferView":43,"componentType":5126,"count":74,"max":[0.07999999821186066,2.0,0.07999999821186066],"min":[-0.07999999821186066,-2.0,-0.07999999821186066],"normalized":false,"type":"VEC3"},{"bufferView":44,"componentType":5126,"count":74,"max":[1.0,0.0,1.0,1.0],"min":[-1.0,-2.157951530534774e-05,-1.0,1.0],"normalized":false,"type":"VEC4"},{"bufferView":45,"componentType":5126,"count":74,"max":[0.9999503493309021,1.0,0.9999503493309021],"min":[-0.9999503493309021,-1.0,-0.9999498724937439],"normalized":false,"type":"VEC3"},{"bufferView":46,"componentType":5126,"count":74,"max":[1.0,1.0],"min":[0.0,0.0],"normalized":false,"type":"VEC2"},{"bufferView":47,"componentType":5121,"count":288,"max":[73],"min":[0],"normalized":false,"type":"SCALAR"},{"bufferView":48,"componentType":5126,"count":2166,"max":[6.4492950439453125,4.699999809265137,5.039999961853027],"min":[-6.4492950439453125,-4.199999809265137,-5.039999961853027],"normalized":false,"type":"VEC3"},{"bufferView":49,"componentType":5126,"count":2166,"max":[1.0,0.9750838875770569,0.9999869465827942,1.0],"min":[-1.0,-0.8840678334236145,-1.0,-1.0],"normalized":false,"type":"VEC4"},{"bufferView":50,"componentType":5126,"count":2166,"max":[0.9746672511100769,1.0,1.0],"min":[-0.9746715426445007,-1.0,-1.0],"normalized":false,"type":"VEC3"},{"bufferView":51,"componentType":5126,"count":2166,"max":[1.0,1.0],"min":[0.0,0.0],"normalized":false,"type":"VEC2"},{"bufferView":52,"componentType":5123,"count":2166,"max":[2165],"min":[0],"normalized":false,"type":"SCALAR"},{"bufferView":53,"componentType":5126,"count":222,"max":[6.4492950439453125,1.9499999284744263,1.5499999523162842],"min":[-6.4492950439453125,-1.149999976158142,-1.5499999523162842],"normalized":false,"type":"VEC3"},{"bufferView":54,"componentType":5126,"count":222,"max":[0.28065016865730286,0.9952434301376343,0.9933409690856934,1.0],"min":[-0.4027366638183594,-0.995233952999115,-0.993340015411377,-1.0],"normalized":false,"type":"VEC4"},{"bufferView":55,"componentType":5126,"count":222,"max":[0.9746672511100769,0.8113711476325989,0.8579834699630737],"min":[-0.9746715426445007,-0.9215341806411743,-0.8579884767532349],"normalized":false,"type":"VEC3"},{"bufferView":56,"componentType":5126,"count":222,"max":[0.9583333134651184,0.960663914680481],"min":[0.0,0.039336077868938446],"normalized":false,"type":"VEC2"},{"bufferView":57,"componentType":5121,"count":222,"max":[221],"min":[0],"normalized":false,"type":"SCALAR"},{"bufferView":58,"componentType":5126,"count":768,"max":[0.30000001192092896,0.07500000298023224,0.30000001192092896],"min":[-0.30000001192092896,-0.07500000298023224,-0.30000001192092896],"normalized":false,"type":"VEC3"},{"bufferView":59,"componentType":5126,"count":768,"max":[1.0,0.11218856275081635,1.0,1.0],"min":[-1.0,-0.11215285956859589,-1.0,-1.0],"normalized":false,"type":"VEC4"},{"bufferView":60,"componentType":5126,"count":768,"max":[1.0,0.9996238350868225,1.0],"min":[-1.0,-0.9996243119239807,-1.0],"normalized":false,"type":"VEC3"},{"bufferView":61,"componentType":5126,"count":768,"max":[0.9375,0.875],"min":[0.0,0.0],"normalized":false,"type":"VEC2"},{"bufferView":62,"componentType":5123,"count":768,"max":[767],"min":[0],"normalized":false,"type":"SCALAR"},{"bufferView":63,"componentType":5126,"count":144,"max":[0.07999999821186066,0.6499999761581421,0.07999999821186066],"min":[-0.07999999821186066,-0.6499999761581421,-0.07999999821186066],"normalized":false,"type":"VEC3"},{"bufferView":64,"componentType":5126,"count":144,"max":[1.0,6.474052497651428e-05,0.9960355758666992,1.0],"min":[-0.9960388541221619,-2.157951530534774e-05,-0.9960373044013977,-1.0],"normalized":false,"type":"VEC4"},{"bufferView":65,"componentType":5126,"count":144,"max":[0.9960356950759888,1.0,0.9960355758666992],"min":[-0.9960387349128723,-1.0,-0.9960340857505798],"normalized":false,"type":"VEC3"},{"bufferView":66,"componentType":5126,"count":144,"max":[1.0,1.0],"min":[0.0,0.0],"normalized":false,"type":"VEC2"},{"bufferView":67,"componentType":5121,"count":144,"max":[143],"min":[0],"normalized":false,"type":"SCALAR"},{"bufferView":68,"componentType":5126,"count":36,"max":[0.4749999940395355,0.03999999910593033,0.05000000074505806],"min":[-0.4749999940395355,-0.03999999910593033,-0.05000000074505806],"normalized":false,"type":"VEC3"},{"bufferView":69,"componentType":5126,"count":36,"max":[0.20000000298023224,0.03999999910593033,0.09000000357627869],"min":[-0.20000000298023224,-0.03999999910593033,-0.09000000357627869],"normalized":false,"type":"VEC3"},{"bufferView":70,"componentType":5126,"count":36,"max":[0.800000011920929,0.03999999910593033,0.125],"min":[-0.800000011920929,-0.03999999910593033,-0.125],"normalized":false,"type":"VEC3"},{"bufferView":71,"componentType":5126,"count":192,"max":[0.44999998807907104,0.5,0.44999998807907104],"min":[-0.44999998807907104,-0.5,-0.44999998807907104],"normalized":false,"type":"VEC3"},{"bufferView":72,"componentType":5126,"count":192,"max":[1.0,6.474052497651428e-05,0.997809112071991,1.0],"min":[-0.9978113770484924,-2.157951530534774e-05,-0.9978125691413879,-1.0],"normalized":false,"type":"VEC4"},{"bufferView":73,"componentType":5126,"count":576,"max":[0.47999995946884155,0.012990382499992847,0.47999995946884155],"min":[-0.47999995946884155,-0.012990382499992847,-0.47999995946884155],"normalized":false,"type":"VEC3"},{"bufferView":74,"componentType":5126,"count":576,"max":[1.0,0.11293566972017288,1.0,1.0],"min":[-1.0,-0.11290310323238373,-1.0,-1.0],"normalized":false,"type":"VEC4"},{"bufferView":75,"componentType":5126,"count":576,"max":[1.0,0.8676866292953491,1.0],"min":[-1.0,-0.8676871061325073,-1.0],"normalized":false,"type":"VEC3"},{"bufferView":76,"componentType":5126,"count":576,"max":[0.9375,0.8333333134651184],"min":[0.0,0.0],"normalized":false,"type":"VEC2"},{"bufferView":77,"componentType":5123,"count":576,"max":[575],"min":[0],"normalized":false,"type":"SCALAR"},{"bufferView":78,"componentType":5126,"count":36,"max":[0.3499999940395355,0.3499999940395355,0.3499999940395355],"min":[-0.3499999940395355,-0.3499999940395355,-0.3499999940395355],"normalized":false,"type":"VEC3"},{"bufferView":79,"componentType":5126,"count":36,"max":[0.019999999552965164,0.36000001430511475,0.36000001430511475],"min":[-0.019999999552965164,-0.36000001430511475,-0.36000001430511475],"normalized":false,"type":"VEC3"},{"bufferView":80,"componentType":5126,"count":36,"max":[0.36000001430511475,0.019999999552965164,0.36000001430511475],"min":[-0.36000001430511475,-0.019999999552965164,-0.36000001430511475],"normalized":false,"type":"VEC3"},{"bufferView":81,"componentType":5126,"count":36,"max":[0.36000001430511475,0.36000001430511475,0.019999999552965164],"min":[-0.36000001430511475,-0.36000001430511475,-0.019999999552965164],"normalized":false,"type":"VEC3"},{"bufferView":82,"componentType":5126,"count":192,"max":[0.15000000596046448,2.820650339126587,0.15000000596046448],"min":[-0.15000000596046448,0.0,-0.15000000596046448],"normalized":false,"type":"VEC3"},{"bufferView":83,"componentType":5126,"count":192,"max":[1.0,0.38910049200057983,0.9950891137123108,1.0],"min":[-0.997809112071991,-0.518947958946228,-0.9950874447822571,-1.0],"normalized":false,"type":"VEC4"},{"bufferView":84,"componentType":5126,"count":192,"max":[0.9950891733169556,0.9950446486473083,0.9978067874908447],"min":[-0.9950892925262451,-1.0,-0.997808039188385],"normalized":false,"type":"VEC3"},{"bufferView":85,"componentType":5126,"count":192,"max":[1.0,0.9402167797088623],"min":[0.0,0.0],"normalized":false,"type":"VEC2"},{"bufferView":86,"componentType":5126,"count":120,"max":[0.15000000596046448,2.820650339126587,0.15000000596046448],"min":[-0.15000000596046448,2.680000066757202,-0.15000000596046448],"normalized":false,"type":"VEC3"},{"bufferView":87,"componentType":5126,"count":120,"max":[0.9659023284912109,0.6327193379402161,0.9996147751808167,1.0],"min":[-0.997898519039154,-0.7103481292724609,-0.9658967852592468,-1.0],"normalized":false,"type":"VEC4"},{"bufferView":88,"componentType":5126,"count":120,"max":[0.7981075048446655,0.999903678894043,0.8116270899772644],"min":[-0.6918520927429199,0.43007999658584595,-0.7535183429718018],"normalized":false,"type":"VEC3"},{"bufferView":89,"componentType":5126,"count":120,"max":[1.0,1.0],"min":[0.050269387662410736,0.6942000389099121],"normalized":false,"type":"VEC2"},{"bufferView":90,"componentType":5121,"count":120,"max":[119],"min":[0],"normalized":false,"type":"SCALAR"},{"bufferView":91,"componentType":5126,"count":192,"max":[0.18000000715255737,0.029999999329447746,0.18000000715255737],"min":[-0.18000000715255737,-0.029999999329447746,-0.18000000715255737],"normalized":false,"type":"VEC3"},{"bufferView":92,"componentType":5126,"count":36,"max":[0.05000000074505806,0.02500000037252903,0.17499999701976776],"min":[-0.05000000074505806,-0.02500000037252903,-0.17499999701976776],"normalized":false,"type":"VEC3"},{"bufferView":93,"componentType":5126,"count":2210,"max":[0.4994336664676666,0.5,0.4994336664676666],"min":[-0.4994336664676666,-0.5,-0.4994336664676666],"normalized":false,"type":"VEC3"},{"bufferView":94,"componentType":5126,"count":2210,"max":[0.07990938425064087,0.07999999821186066,0.07990938425064087],"min":[-0.07990938425064087,-0.07999999821186066,-0.07990938425064087],"normalized":false,"type":"VEC3"},{"bufferView":95,"componentType":5126,"count":24,"max":[0.30000001192092896,0.019999999552965164,0.20000000298023224],"min":[-0.30000001192092896,-0.019999999552965164,-0.20000000298023224],"normalized":false,"type":"VEC3"},{"bufferView":96,"componentType":5126,"count":24,"max":[1.0,0.0,1.0,1.0],"min":[-1.0,-1.5259254723787308e-05,-1.0,1.0],"normalized":false,"type":"VEC4"},{"bufferView":97,"componentType":5126,"count":24,"max":[1.0,1.0,1.0],"min":[-1.0,-1.0,-1.0],"normalized":false,"type":"VEC3"},{"bufferView":98,"componentType":5126,"count":24,"max":[1.0,1.0],"min":[0.0,0.0],"normalized":false,"type":"VEC2"},{"bufferView":99,"componentType":5121,"count":36,"max":[23],"min":[0],"normalized":false,"type":"SCALAR"},{"bufferView":100,"componentType":5126,"count":24,"max":[0.05999999865889549,0.05999999865889549,0.25],"min":[-0.05999999865889549,-0.05999999865889549,-0.25],"normalized":false,"type":"VEC3"}],"asset":{"generator":"Godot Engine v4.6.2.stable.official@71f334935c000924d403448e698df4441130df18","version":"2.0"},"bufferViews":[{"buffer":0,"byteLength":15264,"byteStride":12,"target":34962},{"buffer":0,"byteLength":20352,"byteOffset":15264,"byteStride":16,"target":34962},{"buffer":0,"byteLength":15264,"byteOffset":35616,"byteStride":12,"target":34962},{"buffer":0,"byteLength":10176,"byteOffset":50880,"byteStride":8,"target":34962},{"buffer":0,"byteLength":2544,"byteOffset":61056,"target":34963},{"buffer":0,"byteLength":19584,"byteOffset":63600,"byteStride":12,"target":34962},{"buffer":0,"byteLength":26112,"byteOffset":83184,"byteStride":16,"target":34962},{"buffer":0,"byteLength":19584,"byteOffset":109296,"byteStride":12,"target":34962},{"buffer":0,"byteLength":13056,"byteOffset":128880,"byteStride":8,"target":34962},{"buffer":0,"byteLength":3264,"byteOffset":141936,"target":34963},{"buffer":0,"byteLength":46128,"byteOffset":145200,"byteStride":12,"target":34962},{"buffer":0,"byteLength":61504,"byteOffset":191328,"byteStride":16,"target":34962},{"buffer":0,"byteLength":46128,"byteOffset":252832,"byteStride":12,"target":34962},{"buffer":0,"byteLength":30752,"byteOffset":298960,"byteStride":8,"target":34962},{"buffer":0,"byteLength":44652,"byteOffset":329712,"target":34963},{"buffer":0,"byteLength":7128,"byteOffset":374364,"byteStride":12,"target":34962},{"buffer":0,"byteLength":9504,"byteOffset":381492,"byteStride":16,"target":34962},{"buffer":0,"byteLength":7128,"byteOffset":390996,"byteStride":12,"target":34962},{"buffer":0,"byteLength":4752,"byteOffset":398124,"byteStride":8,"target":34962},{"buffer":0,"byteLength":6528,"byteOffset":402876,"target":34963},{"buffer":0,"byteLength":432,"byteOffset":409404,"byteStride":12,"target":34962},{"buffer":0,"byteLength":576,"byteOffset":409836,"byteStride":16,"target":34962},{"buffer":0,"byteLength":432,"byteOffset":410412,"byteStride":12,"target":34962},{"buffer":0,"byteLength":288,"byteOffset":410844,"byteStride":8,"target":34962},{"buffer":0,"byteLength":36,"byteOffset":411132,"target":34963},{"buffer":0,"byteLength":432,"byteOffset":411168,"byteStride":12,"target":34962},{"buffer":0,"byteLength":432,"byteOffset":411600,"byteStride":12,"target":34962},{"buffer":0,"byteLength":2304,"byteOffset":412032,"byteStride":12,"target":34962},{"buffer":0,"byteLength":3072,"byteOffset":414336,"byteStride":16,"target":34962},{"buffer":0,"byteLength":2304,"byteOffset":417408,"byteStride":12,"target":34962},{"buffer":0,"byteLength":1536,"byteOffset":419712,"byteStride":8,"target":34962},{"buffer":0,"byteLength":192,"byteOffset":421248,"target":34963},{"buffer":0,"byteLength":432,"byteOffset":421440,"byteStride":12,"target":34962},{"buffer":0,"byteLength":4320,"byteOffset":421872,"byteStride":12,"target":34962},{"buffer":0,"byteLength":5760,"byteOffset":426192,"byteStride":16,"target":34962},{"buffer":0,"byteLength":4320,"byteOffset":431952,"byteStride":12,"target":34962},{"buffer":0,"byteLength":2880,"byteOffset":436272,"byteStride":8,"target":34962},{"buffer":0,"byteLength":720,"byteOffset":439152,"target":34963},{"buffer":0,"byteLength":26520,"byteOffset":439872,"byteStride":12,"target":34962},{"buffer":0,"byteLength":35360,"byteOffset":466392,"byteStride":16,"target":34962},{"buffer":0,"byteLength":26520,"byteOffset":501752,"byteStride":12,"target":34962},{"buffer":0,"byteLength":17680,"byteOffset":528272,"byteStride":8,"target":34962},{"buffer":0,"byteLength":25344,"byteOffset":545952,"target":34963},{"buffer":0,"byteLength":888,"byteOffset":571296,"byteStride":12,"target":34962},{"buffer":0,"byteLength":1184,"byteOffset":572184,"byteStride":16,"target":34962},{"buffer":0,"byteLength":888,"byteOffset":573368,"byteStride":12,"target":34962},{"buffer":0,"byteLength":592,"byteOffset":574256,"byteStride":8,"target":34962},{"buffer":0,"byteLength":288,"byteOffset":574848,"target":34963},{"buffer":0,"byteLength":25992,"byteOffset":575136,"byteStride":12,"target":34962},{"buffer":0,"byteLength":34656,"byteOffset":601128,"byteStride":16,"target":34962},{"buffer":0,"byteLength":25992,"byteOffset":635784,"byteStride":12,"target":34962},{"buffer":0,"byteLength":17328,"byteOffset":661776,"byteStride":8,"target":34962},{"buffer":0,"byteLength":4332,"byteOffset":679104,"target":34963},{"buffer":0,"byteLength":2664,"byteOffset":683436,"byteStride":12,"target":34962},{"buffer":0,"byteLength":3552,"byteOffset":686100,"byteStride":16,"target":34962},{"buffer":0,"byteLength":2664,"byteOffset":689652,"byteStride":12,"target":34962},{"buffer":0,"byteLength":1776,"byteOffset":692316,"byteStride":8,"target":34962},{"buffer":0,"byteLength":222,"byteOffset":694092,"target":34963},{"buffer":0,"byteLength":9216,"byteOffset":694316,"byteStride":12,"target":34962},{"buffer":0,"byteLength":12288,"byteOffset":703532,"byteStride":16,"target":34962},{"buffer":0,"byteLength":9216,"byteOffset":715820,"byteStride":12,"target":34962},{"buffer":0,"byteLength":6144,"byteOffset":725036,"byteStride":8,"target":34962},{"buffer":0,"byteLength":1536,"byteOffset":731180,"target":34963},{"buffer":0,"byteLength":1728,"byteOffset":732716,"byteStride":12,"target":34962},{"buffer":0,"byteLength":2304,"byteOffset":734444,"byteStride":16,"target":34962},{"buffer":0,"byteLength":1728,"byteOffset":736748,"byteStride":12,"target":34962},{"buffer":0,"byteLength":1152,"byteOffset":738476,"byteStride":8,"target":34962},{"buffer":0,"byteLength":144,"byteOffset":739628,"target":34963},{"buffer":0,"byteLength":432,"byteOffset":739772,"byteStride":12,"target":34962},{"buffer":0,"byteLength":432,"byteOffset":740204,"byteStride":12,"target":34962},{"buffer":0,"byteLength":432,"byteOffset":740636,"byteStride":12,"target":34962},{"buffer":0,"byteLength":2304,"byteOffset":741068,"byteStride":12,"target":34962},{"buffer":0,"byteLength":3072,"byteOffset":743372,"byteStride":16,"target":34962},{"buffer":0,"byteLength":6912,"byteOffset":746444,"byteStride":12,"target":34962},{"buffer":0,"byteLength":9216,"byteOffset":753356,"byteStride":16,"target":34962},{"buffer":0,"byteLength":6912,"byteOffset":762572,"byteStride":12,"target":34962},{"buffer":0,"byteLength":4608,"byteOffset":769484,"byteStride":8,"target":34962},{"buffer":0,"byteLength":1152,"byteOffset":774092,"target":34963},{"buffer":0,"byteLength":432,"byteOffset":775244,"byteStride":12,"target":34962},{"buffer":0,"byteLength":432,"byteOffset":775676,"byteStride":12,"target":34962},{"buffer":0,"byteLength":432,"byteOffset":776108,"byteStride":12,"target":34962},{"buffer":0,"byteLength":432,"byteOffset":776540,"byteStride":12,"target":34962},{"buffer":0,"byteLength":2304,"byteOffset":776972,"byteStride":12,"target":34962},{"buffer":0,"byteLength":3072,"byteOffset":779276,"byteStride":16,"target":34962},{"buffer":0,"byteLength":2304,"byteOffset":782348,"byteStride":12,"target":34962},{"buffer":0,"byteLength":1536,"byteOffset":784652,"byteStride":8,"target":34962},{"buffer":0,"byteLength":1440,"byteOffset":786188,"byteStride":12,"target":34962},{"buffer":0,"byteLength":1920,"byteOffset":787628,"byteStride":16,"target":34962},{"buffer":0,"byteLength":1440,"byteOffset":789548,"byteStride":12,"target":34962},{"buffer":0,"byteLength":960,"byteOffset":790988,"byteStride":8,"target":34962},{"buffer":0,"byteLength":120,"byteOffset":791948,"target":34963},{"buffer":0,"byteLength":2304,"byteOffset":792068,"byteStride":12,"target":34962},{"buffer":0,"byteLength":432,"byteOffset":794372,"byteStride":12,"target":34962},{"buffer":0,"byteLength":26520,"byteOffset":794804,"byteStride":12,"target":34962},{"buffer":0,"byteLength":26520,"byteOffset":821324,"byteStride":12,"target":34962},{"buffer":0,"byteLength":288,"byteOffset":847844,"byteStride":12,"target":34962},{"buffer":0,"byteLength":384,"byteOffset":848132,"byteStride":16,"target":34962},{"buffer":0,"byteLength":288,"byteOffset":848516,"byteStride":12,"target":34962},{"buffer":0,"byteLength":192,"byteOffset":848804,"byteStride":8,"target":34962},{"buffer":0,"byteLength":36,"byteOffset":848996,"target":34963},{"buffer":0,"byteLength":288,"byteOffset":849032,"byteStride":12,"target":34962}],"buffers":[{"byteLength":849320,"uri":"reef0.bin"}],"cameras":[{"perspective":{"yfov":1.5707963705062866,"zfar":4000.0,"znear":0.05000000074505806},"type":"perspective"}],"extensions":{"KHR_lights_punctual":{"lights":[{"color":[1.0,0.6920710802078247,0.2632734179496765],"intensity":2.0999999046325684,"type":"directional"},{"color":[0.6920710802078247,0.890005350112915,1.0],"intensity":0.550000011920929,"range":28.0,"spot":{"innerConeAngle":0.9723978042602539,"outerConeAngle":1.3613568544387817},"type":"spot"}]},"OMI_physics_shape":{"shapes":[{"box":{"size":[1.399999976158142,0.8399999737739563,0.8500000238418579]},"type":"box"},{"sphere":{"radius":0.6499999761581421},"type":"sphere"},{"cylinder":{"height":4.0,"radius":0.18000000715255737},"type":"cylinder"},{"sphere":{"radius":0.6000000238418579},"type":"sphere"},{"capsule":{"height":1.7000000476837158,"radius":0.44999998807907104},"type":"capsule"}]}},"extensionsUsed":["KHR_lights_punctual","KHR_materials_emissive_strength","KHR_materials_unlit","OMI_physics_body","OMI_physics_shape"],"materials":[{},{},{},{"pbrMetallicRoughness":{"baseColorFactor":[0.07323895394802094,0.02198094315826893,0.00598105788230896,1.0],"metallicFactor":0.03999999910593033,"roughnessFactor":0.7200000286102295}},{"pbrMetallicRoughness":{"baseColorFactor":[0.027211777865886688,0.010022823698818684,0.0030959751456975937,1.0],"metallicFactor":0.05000000074505806,"roughnessFactor":0.6000000238418579}},{"emissiveFactor":[0.767375648021698,0.679975688457489,0.34919020533561707],"extensions":{"KHR_materials_emissive_strength":{"emissiveStrength":0.5}},"pbrMetallicRoughness":{"baseColorFactor":[0.890005350112915,0.570481538772583,0.05087607726454735,1.0],"metallicFactor":0.8999999761581421,"roughnessFactor":0.25}},{"extensions":{"KHR_materials_unlit":{}},"pbrMetallicRoughness":{"baseColorFactor":[1.0,0.7484140992164612,0.13286831974983215,1.0],"metallicFactor":0.0,"roughnessFactor":1.0}},{"pbrMetallicRoughness":{"baseColorFactor":[0.027211777865886688,0.03968190401792526,0.03968190401792526,1.0],"metallicFactor":0.0,"roughnessFactor":0.8799999952316284}},{"pbrMetallicRoughness":{"baseColorFactor":[0.017389100044965744,0.046964194625616074,0.02198094315826893,1.0],"metallicFactor":0.0,"roughnessFactor":0.9200000166893005}},{},{},{"pbrMetallicRoughness":{"baseColorFactor":[0.09462962299585342,0.08353511989116669,0.07323895394802094,1.0],"metallicFactor":0.0,"roughnessFactor":0.949999988079071}},{},{},{"pbrMetallicRoughness":{"baseColorFactor":[0.03968190401792526,0.05497172847390175,0.03968190401792526,1.0],"metallicFactor":0.4000000059604645,"roughnessFactor":0.8500000238418579}},{"pbrMetallicRoughness":{"baseColorFactor":[0.09462962299585342,0.03968190401792526,0.013411746360361576,1.0],"metallicFactor":0.0,"roughnessFactor":0.699999988079071}},{"pbrMetallicRoughness":{"baseColorFactor":[0.11928018182516098,0.046964194625616074,0.017389100044965744,1.0],"metallicFactor":0.0,"roughnessFactor":0.7200000286102295}},{"pbrMetallicRoughness":{"baseColorFactor":[0.027211777865886688,0.02198094315826893,0.017389100044965744,1.0],"metallicFactor":0.550000011920929,"roughnessFactor":0.6000000238418579}},{"pbrMetallicRoughness":{"baseColorFactor":[0.10653921961784363,0.043233636766672134,0.015325200743973255,1.0],"metallicFactor":0.0,"roughnessFactor":0.75}},{"pbrMetallicRoughness":{"baseColorFactor":[0.046964194625616074,0.02198094315826893,0.0085403798148036,1.0],"metallicFactor":0.0,"roughnessFactor":0.699999988079071}},{"pbrMetallicRoughness":{"baseColorFactor":[0.07323895394802094,0.03310476243495941,0.011645428836345673,1.0],"metallicFactor":0.0,"roughnessFactor":0.7799999713897705}},{},{"pbrMetallicRoughness":{"baseColorFactor":[0.8275707960128784,0.1473189741373062,0.027211777865886688,1.0],"metallicFactor":0.05000000074505806,"roughnessFactor":0.550000011920929}},{"pbrMetallicRoughness":{"baseColorFactor":[0.7484140992164612,0.38005632162094116,0.03968190401792526,1.0],"metallicFactor":0.05000000074505806,"roughnessFactor":0.550000011920929}},{"pbrMetallicRoughness":{"baseColorFactor":[0.2632734179496765,0.07323895394802094,0.47699984908103943,1.0],"metallicFactor":0.05000000074505806,"roughnessFactor":0.550000011920929}},{},{"extensions":{"KHR_materials_unlit":{}},"pbrMetallicRoughness":{"baseColorFactor":[0.4479883313179016,0.890005350112915,1.0,1.0],"metallicFactor":0.0,"roughnessFactor":1.0}}],"meshes":[{"name":"Seafloor2","primitives":[{"attributes":{"NORMAL":2,"POSITION":0,"TANGENT":1,"TEXCOORD_0":3},"indices":4,"material":0,"mode":4},{"attributes":{"NORMAL":7,"POSITION":5,"TANGENT":6,"TEXCOORD_0":8},"indices":9,"material":0,"mode":4}]},{"primitives":[{"attributes":{"NORMAL":12,"POSITION":10,"TANGENT":11,"TEXCOORD_0":13},"indices":14,"material":1,"mode":4}]},{"primitives":[{"attributes":{"NORMAL":17,"POSITION":15,"TANGENT":16,"TEXCOORD_0":18},"indices":19,"material":2,"mode":4}]},{"name":"Body2","primitives":[{"attributes":{"NORMAL":22,"POSITION":20,"TANGENT":21,"TEXCOORD_0":23},"indices":24,"material":3,"mode":4}]},{"name":"Trim12","primitives":[{"attributes":{"NORMAL":22,"POSITION":25,"TANGENT":21,"TEXCOORD_0":23},"indices":24,"material":4,"mode":4}]},{"name":"Trim22","primitives":[{"attributes":{"NORMAL":22,"POSITION":25,"TANGENT":21,"TEXCOORD_0":23},"indices":24,"material":4,"mode":4}]},{"name":"Lid2","primitives":[{"attributes":{"NORMAL":22,"POSITION":26,"TANGENT":21,"TEXCOORD_0":23},"indices":24,"material":3,"mode":4}]},{"name":"Lock2","primitives":[{"attributes":{"NORMAL":29,"POSITION":27,"TANGENT":28,"TEXCOORD_0":30},"indices":31,"material":5,"mode":4}]},{"name":"GlowFill2","primitives":[{"attributes":{"NORMAL":22,"POSITION":32,"TANGENT":21,"TEXCOORD_0":23},"indices":24,"material":6,"mode":4}]},{"name":"Rock12","primitives":[{"attributes":{"NORMAL":35,"POSITION":33,"TANGENT":34,"TEXCOORD_0":36},"indices":37,"material":7,"mode":4}]},{"name":"Rock22","primitives":[{"attributes":{"NORMAL":35,"POSITION":33,"TANGENT":34,"TEXCOORD_0":36},"indices":37,"material":7,"mode":4}]},{"name":"RockA2","primitives":[{"attributes":{"NORMAL":35,"POSITION":33,"TANGENT":34,"TEXCOORD_0":36},"indices":37,"material":7,"mode":4}]},{"name":"RockB2","primitives":[{"attributes":{"NORMAL":35,"POSITION":33,"TANGENT":34,"TEXCOORD_0":36},"indices":37,"material":8,"mode":4}]},{"name":"RockC2","primitives":[{"attributes":{"NORMAL":35,"POSITION":33,"TANGENT":34,"TEXCOORD_0":36},"indices":37,"material":7,"mode":4}]},{"name":"RockD2","primitives":[{"attributes":{"NORMAL":35,"POSITION":33,"TANGENT":34,"TEXCOORD_0":36},"indices":37,"material":8,"mode":4}]},{"name":"RockE2","primitives":[{"attributes":{"NORMAL":35,"POSITION":33,"TANGENT":34,"TEXCOORD_0":36},"indices":37,"material":7,"mode":4}]},{"name":"RockF2","primitives":[{"attributes":{"NORMAL":35,"POSITION":33,"TANGENT":34,"TEXCOORD_0":36},"indices":37,"material":8,"mode":4}]},{"name":"RockG2","primitives":[{"attributes":{"NORMAL":35,"POSITION":33,"TANGENT":34,"TEXCOORD_0":36},"indices":37,"material":7,"mode":4}]},{"name":"RockH2","primitives":[{"attributes":{"NORMAL":35,"POSITION":33,"TANGENT":34,"TEXCOORD_0":36},"indices":37,"material":8,"mode":4}]},{"primitives":[{"attributes":{"NORMAL":40,"POSITION":38,"TANGENT":39,"TEXCOORD_0":41},"indices":42,"material":9,"mode":4}]},{"primitives":[{"attributes":{"NORMAL":40,"POSITION":38,"TANGENT":39,"TEXCOORD_0":41},"indices":42,"material":9,"mode":4}]},{"primitives":[{"attributes":{"NORMAL":40,"POSITION":38,"TANGENT":39,"TEXCOORD_0":41},"indices":42,"material":9,"mode":4}]},{"primitives":[{"attributes":{"NORMAL":40,"POSITION":38,"TANGENT":39,"TEXCOORD_0":41},"indices":42,"material":9,"mode":4}]},{"primitives":[{"attributes":{"NORMAL":40,"POSITION":38,"TANGENT":39,"TEXCOORD_0":41},"indices":42,"material":9,"mode":4}]},{"primitives":[{"attributes":{"NORMAL":40,"POSITION":38,"TANGENT":39,"TEXCOORD_0":41},"indices":42,"material":9,"mode":4}]},{"primitives":[{"attributes":{"NORMAL":40,"POSITION":38,"TANGENT":39,"TEXCOORD_0":41},"indices":42,"material":9,"mode":4}]},{"primitives":[{"attributes":{"NORMAL":40,"POSITION":38,"TANGENT":39,"TEXCOORD_0":41},"indices":42,"material":9,"mode":4}]},{"primitives":[{"attributes":{"NORMAL":45,"POSITION":43,"TANGENT":44,"TEXCOORD_0":46},"indices":47,"material":10,"mode":4}]},{"primitives":[{"attributes":{"NORMAL":45,"POSITION":43,"TANGENT":44,"TEXCOORD_0":46},"indices":47,"material":10,"mode":4}]},{"primitives":[{"attributes":{"NORMAL":45,"POSITION":43,"TANGENT":44,"TEXCOORD_0":46},"indices":47,"material":10,"mode":4}]},{"primitives":[{"attributes":{"NORMAL":45,"POSITION":43,"TANGENT":44,"TEXCOORD_0":46},"indices":47,"material":10,"mode":4}]},{"primitives":[{"attributes":{"NORMAL":45,"POSITION":43,"TANGENT":44,"TEXCOORD_0":46},"indices":47,"material":10,"mode":4}]},{"primitives":[{"attributes":{"NORMAL":45,"POSITION":43,"TANGENT":44,"TEXCOORD_0":46},"indices":47,"material":10,"mode":4}]},{"primitives":[{"attributes":{"NORMAL":45,"POSITION":43,"TANGENT":44,"TEXCOORD_0":46},"indices":47,"material":10,"mode":4}]},{"primitives":[{"attributes":{"NORMAL":45,"POSITION":43,"TANGENT":44,"TEXCOORD_0":46},"indices":47,"material":10,"mode":4}]},{"primitives":[{"attributes":{"NORMAL":45,"POSITION":43,"TANGENT":44,"TEXCOORD_0":46},"indices":47,"material":10,"mode":4}]},{"primitives":[{"attributes":{"NORMAL":45,"POSITION":43,"TANGENT":44,"TEXCOORD_0":46},"indices":47,"material":10,"mode":4}]},{"name":"RockArchA2","primitives":[{"attributes":{"NORMAL":50,"POSITION":48,"TANGENT":49,"TEXCOORD_0":51},"indices":52,"material":11,"mode":4},{"attributes":{"NORMAL":55,"POSITION":53,"TANGENT":54,"TEXCOORD_0":56},"indices":57,"material":12,"mode":4}]},{"name":"RockArchB2","primitives":[{"attributes":{"NORMAL":50,"POSITION":48,"TANGENT":49,"TEXCOORD_0":51},"indices":52,"material":11,"mode":4},{"attributes":{"NORMAL":55,"POSITION":53,"TANGENT":54,"TEXCOORD_0":56},"indices":57,"material":13,"mode":4}]},{"name":"Ring2","primitives":[{"attributes":{"NORMAL":60,"POSITION":58,"TANGENT":59,"TEXCOORD_0":61},"indices":62,"material":14,"mode":4}]},{"name":"Shank2","primitives":[{"attributes":{"NORMAL":65,"POSITION":63,"TANGENT":64,"TEXCOORD_0":66},"indices":67,"material":14,"mode":4}]},{"name":"Crossbar2","primitives":[{"attributes":{"NORMAL":22,"POSITION":68,"TANGENT":21,"TEXCOORD_0":23},"indices":24,"material":14,"mode":4}]},{"name":"FlukeL2","primitives":[{"attributes":{"NORMAL":22,"POSITION":69,"TANGENT":21,"TEXCOORD_0":23},"indices":24,"material":14,"mode":4}]},{"name":"FlukeR2","primitives":[{"attributes":{"NORMAL":22,"POSITION":69,"TANGENT":21,"TEXCOORD_0":23},"indices":24,"material":14,"mode":4}]},{"name":"Body4","primitives":[{"attributes":{"NORMAL":22,"POSITION":70,"TANGENT":21,"TEXCOORD_0":23},"indices":24,"material":15,"mode":4}]},{"name":"Body6","primitives":[{"attributes":{"NORMAL":22,"POSITION":70,"TANGENT":21,"TEXCOORD_0":23},"indices":24,"material":15,"mode":4}]},{"name":"Body8","primitives":[{"attributes":{"NORMAL":29,"POSITION":71,"TANGENT":72,"TEXCOORD_0":30},"indices":31,"material":16,"mode":4}]},{"name":"BandTop2","primitives":[{"attributes":{"NORMAL":75,"POSITION":73,"TANGENT":74,"TEXCOORD_0":76},"indices":77,"material":17,"mode":4}]},{"name":"BandMid2","primitives":[{"attributes":{"NORMAL":75,"POSITION":73,"TANGENT":74,"TEXCOORD_0":76},"indices":77,"material":17,"mode":4}]},{"name":"BandBot2","primitives":[{"attributes":{"NORMAL":75,"POSITION":73,"TANGENT":74,"TEXCOORD_0":76},"indices":77,"material":17,"mode":4}]},{"name":"Body10","primitives":[{"attributes":{"NORMAL":22,"POSITION":78,"TANGENT":21,"TEXCOORD_0":23},"indices":24,"material":18,"mode":4}]},{"name":"TrimXp2","primitives":[{"attributes":{"NORMAL":22,"POSITION":79,"TANGENT":21,"TEXCOORD_0":23},"indices":24,"material":19,"mode":4}]},{"name":"TrimXm2","primitives":[{"attributes":{"NORMAL":22,"POSITION":79,"TANGENT":21,"TEXCOORD_0":23},"indices":24,"material":19,"mode":4}]},{"name":"TrimYp2","primitives":[{"attributes":{"NORMAL":22,"POSITION":80,"TANGENT":21,"TEXCOORD_0":23},"indices":24,"material":19,"mode":4}]},{"name":"TrimZp2","primitives":[{"attributes":{"NORMAL":22,"POSITION":81,"TANGENT":21,"TEXCOORD_0":23},"indices":24,"material":19,"mode":4}]},{"name":"TrimZm2","primitives":[{"attributes":{"NORMAL":22,"POSITION":81,"TANGENT":21,"TEXCOORD_0":23},"indices":24,"material":19,"mode":4}]},{"name":"Body12","primitives":[{"attributes":{"NORMAL":22,"POSITION":78,"TANGENT":21,"TEXCOORD_0":23},"indices":24,"material":18,"mode":4}]},{"name":"TrimXp4","primitives":[{"attributes":{"NORMAL":22,"POSITION":79,"TANGENT":21,"TEXCOORD_0":23},"indices":24,"material":19,"mode":4}]},{"name":"TrimXm4","primitives":[{"attributes":{"NORMAL":22,"POSITION":79,"TANGENT":21,"TEXCOORD_0":23},"indices":24,"material":19,"mode":4}]},{"name":"TrimYp4","primitives":[{"attributes":{"NORMAL":22,"POSITION":80,"TANGENT":21,"TEXCOORD_0":23},"indices":24,"material":19,"mode":4}]},{"name":"TrimZp4","primitives":[{"attributes":{"NORMAL":22,"POSITION":81,"TANGENT":21,"TEXCOORD_0":23},"indices":24,"material":19,"mode":4}]},{"name":"TrimZm4","primitives":[{"attributes":{"NORMAL":22,"POSITION":81,"TANGENT":21,"TEXCOORD_0":23},"indices":24,"material":19,"mode":4}]},{"name":"WreckMast2","primitives":[{"attributes":{"NORMAL":84,"POSITION":82,"TANGENT":83,"TEXCOORD_0":85},"indices":31,"material":20,"mode":4},{"attributes":{"NORMAL":88,"POSITION":86,"TANGENT":87,"TEXCOORD_0":89},"indices":90,"material":21,"mode":4}]},{"name":"Centre2","primitives":[{"attributes":{"NORMAL":29,"POSITION":91,"TANGENT":28,"TEXCOORD_0":30},"indices":31,"material":22,"mode":4}]},{"name":"Arm12","primitives":[{"attributes":{"NORMAL":22,"POSITION":92,"TANGENT":21,"TEXCOORD_0":23},"indices":24,"material":22,"mode":4}]},{"name":"Arm22","primitives":[{"attributes":{"NORMAL":22,"POSITION":92,"TANGENT":21,"TEXCOORD_0":23},"indices":24,"material":22,"mode":4}]},{"name":"Arm32","primitives":[{"attributes":{"NORMAL":22,"POSITION":92,"TANGENT":21,"TEXCOORD_0":23},"indices":24,"material":22,"mode":4}]},{"name":"Arm42","primitives":[{"attributes":{"NORMAL":22,"POSITION":92,"TANGENT":21,"TEXCOORD_0":23},"indices":24,"material":22,"mode":4}]},{"name":"Arm52","primitives":[{"attributes":{"NORMAL":22,"POSITION":92,"TANGENT":21,"TEXCOORD_0":23},"indices":24,"material":22,"mode":4}]},{"name":"Centre4","primitives":[{"attributes":{"NORMAL":29,"POSITION":91,"TANGENT":28,"TEXCOORD_0":30},"indices":31,"material":23,"mode":4}]},{"name":"Arm14","primitives":[{"attributes":{"NORMAL":22,"POSITION":92,"TANGENT":21,"TEXCOORD_0":23},"indices":24,"material":23,"mode":4}]},{"name":"Arm24","primitives":[{"attributes":{"NORMAL":22,"POSITION":92,"TANGENT":21,"TEXCOORD_0":23},"indices":24,"material":23,"mode":4}]},{"name":"Arm34","primitives":[{"attributes":{"NORMAL":22,"POSITION":92,"TANGENT":21,"TEXCOORD_0":23},"indices":24,"material":23,"mode":4}]},{"name":"Arm44","primitives":[{"attributes":{"NORMAL":22,"POSITION":92,"TANGENT":21,"TEXCOORD_0":23},"indices":24,"material":23,"mode":4}]},{"name":"Arm54","primitives":[{"attributes":{"NORMAL":22,"POSITION":92,"TANGENT":21,"TEXCOORD_0":23},"indices":24,"material":23,"mode":4}]},{"name":"Centre6","primitives":[{"attributes":{"NORMAL":29,"POSITION":91,"TANGENT":28,"TEXCOORD_0":30},"indices":31,"material":24,"mode":4}]},{"name":"Arm16","primitives":[{"attributes":{"NORMAL":22,"POSITION":92,"TANGENT":21,"TEXCOORD_0":23},"indices":24,"material":24,"mode":4}]},{"name":"Arm26","primitives":[{"attributes":{"NORMAL":22,"POSITION":92,"TANGENT":21,"TEXCOORD_0":23},"indices":24,"material":24,"mode":4}]},{"name":"Arm36","primitives":[{"attributes":{"NORMAL":22,"POSITION":92,"TANGENT":21,"TEXCOORD_0":23},"indices":24,"material":24,"mode":4}]},{"name":"Arm46","primitives":[{"attributes":{"NORMAL":22,"POSITION":92,"TANGENT":21,"TEXCOORD_0":23},"indices":24,"material":24,"mode":4}]},{"name":"Arm56","primitives":[{"attributes":{"NORMAL":22,"POSITION":92,"TANGENT":21,"TEXCOORD_0":23},"indices":24,"material":24,"mode":4}]},{"name":"Centre8","primitives":[{"attributes":{"NORMAL":29,"POSITION":91,"TANGENT":28,"TEXCOORD_0":30},"indices":31,"material":22,"mode":4}]},{"name":"Arm18","primitives":[{"attributes":{"NORMAL":22,"POSITION":92,"TANGENT":21,"TEXCOORD_0":23},"indices":24,"material":22,"mode":4}]},{"name":"Arm28","primitives":[{"attributes":{"NORMAL":22,"POSITION":92,"TANGENT":21,"TEXCOORD_0":23},"indices":24,"material":22,"mode":4}]},{"name":"Arm38","primitives":[{"attributes":{"NORMAL":22,"POSITION":92,"TANGENT":21,"TEXCOORD_0":23},"indices":24,"material":22,"mode":4}]},{"name":"Arm48","primitives":[{"attributes":{"NORMAL":22,"POSITION":92,"TANGENT":21,"TEXCOORD_0":23},"indices":24,"material":22,"mode":4}]},{"name":"Arm58","primitives":[{"attributes":{"NORMAL":22,"POSITION":92,"TANGENT":21,"TEXCOORD_0":23},"indices":24,"material":22,"mode":4}]},{"name":"Centre10","primitives":[{"attributes":{"NORMAL":29,"POSITION":91,"TANGENT":28,"TEXCOORD_0":30},"indices":31,"material":23,"mode":4}]},{"name":"Arm110","primitives":[{"attributes":{"NORMAL":22,"POSITION":92,"TANGENT":21,"TEXCOORD_0":23},"indices":24,"material":23,"mode":4}]},{"name":"Arm210","primitives":[{"attributes":{"NORMAL":22,"POSITION":92,"TANGENT":21,"TEXCOORD_0":23},"indices":24,"material":23,"mode":4}]},{"name":"Arm310","primitives":[{"attributes":{"NORMAL":22,"POSITION":92,"TANGENT":21,"TEXCOORD_0":23},"indices":24,"material":23,"mode":4}]},{"name":"Arm410","primitives":[{"attributes":{"NORMAL":22,"POSITION":92,"TANGENT":21,"TEXCOORD_0":23},"indices":24,"material":23,"mode":4}]},{"name":"Arm510","primitives":[{"attributes":{"NORMAL":22,"POSITION":92,"TANGENT":21,"TEXCOORD_0":23},"indices":24,"material":23,"mode":4}]},{"name":"Centre12","primitives":[{"attributes":{"NORMAL":29,"POSITION":91,"TANGENT":28,"TEXCOORD_0":30},"indices":31,"material":24,"mode":4}]},{"name":"Arm112","primitives":[{"attributes":{"NORMAL":22,"POSITION":92,"TANGENT":21,"TEXCOORD_0":23},"indices":24,"material":24,"mode":4}]},{"name":"Arm212","primitives":[{"attributes":{"NORMAL":22,"POSITION":92,"TANGENT":21,"TEXCOORD_0":23},"indices":24,"material":24,"mode":4}]},{"name":"Arm312","primitives":[{"attributes":{"NORMAL":22,"POSITION":92,"TANGENT":21,"TEXCOORD_0":23},"indices":24,"material":24,"mode":4}]},{"name":"Arm412","primitives":[{"attributes":{"NORMAL":22,"POSITION":92,"TANGENT":21,"TEXCOORD_0":23},"indices":24,"material":24,"mode":4}]},{"name":"Arm512","primitives":[{"attributes":{"NORMAL":22,"POSITION":92,"TANGENT":21,"TEXCOORD_0":23},"indices":24,"material":24,"mode":4}]},{"name":"Centre14","primitives":[{"attributes":{"NORMAL":29,"POSITION":91,"TANGENT":28,"TEXCOORD_0":30},"indices":31,"material":22,"mode":4}]},{"name":"Arm114","primitives":[{"attributes":{"NORMAL":22,"POSITION":92,"TANGENT":21,"TEXCOORD_0":23},"indices":24,"material":22,"mode":4}]},{"name":"Arm214","primitives":[{"attributes":{"NORMAL":22,"POSITION":92,"TANGENT":21,"TEXCOORD_0":23},"indices":24,"material":22,"mode":4}]},{"name":"Arm314","primitives":[{"attributes":{"NORMAL":22,"POSITION":92,"TANGENT":21,"TEXCOORD_0":23},"indices":24,"material":22,"mode":4}]},{"name":"Arm414","primitives":[{"attributes":{"NORMAL":22,"POSITION":92,"TANGENT":21,"TEXCOORD_0":23},"indices":24,"material":22,"mode":4}]},{"name":"Arm514","primitives":[{"attributes":{"NORMAL":22,"POSITION":92,"TANGENT":21,"TEXCOORD_0":23},"indices":24,"material":22,"mode":4}]},{"name":"Centre16","primitives":[{"attributes":{"NORMAL":29,"POSITION":91,"TANGENT":28,"TEXCOORD_0":30},"indices":31,"material":23,"mode":4}]},{"name":"Arm116","primitives":[{"attributes":{"NORMAL":22,"POSITION":92,"TANGENT":21,"TEXCOORD_0":23},"indices":24,"material":23,"mode":4}]},{"name":"Arm216","primitives":[{"attributes":{"NORMAL":22,"POSITION":92,"TANGENT":21,"TEXCOORD_0":23},"indices":24,"material":23,"mode":4}]},{"name":"Arm316","primitives":[{"attributes":{"NORMAL":22,"POSITION":92,"TANGENT":21,"TEXCOORD_0":23},"indices":24,"material":23,"mode":4}]},{"name":"Arm416","primitives":[{"attributes":{"NORMAL":22,"POSITION":92,"TANGENT":21,"TEXCOORD_0":23},"indices":24,"material":23,"mode":4}]},{"name":"Arm516","primitives":[{"attributes":{"NORMAL":22,"POSITION":92,"TANGENT":21,"TEXCOORD_0":23},"indices":24,"material":23,"mode":4}]},{"name":"Centre18","primitives":[{"attributes":{"NORMAL":29,"POSITION":91,"TANGENT":28,"TEXCOORD_0":30},"indices":31,"material":22,"mode":4}]},{"name":"Arm118","primitives":[{"attributes":{"NORMAL":22,"POSITION":92,"TANGENT":21,"TEXCOORD_0":23},"indices":24,"material":22,"mode":4}]},{"name":"Arm218","primitives":[{"attributes":{"NORMAL":22,"POSITION":92,"TANGENT":21,"TEXCOORD_0":23},"indices":24,"material":22,"mode":4}]},{"name":"Arm318","primitives":[{"attributes":{"NORMAL":22,"POSITION":92,"TANGENT":21,"TEXCOORD_0":23},"indices":24,"material":22,"mode":4}]},{"name":"Arm418","primitives":[{"attributes":{"NORMAL":22,"POSITION":92,"TANGENT":21,"TEXCOORD_0":23},"indices":24,"material":22,"mode":4}]},{"name":"Arm518","primitives":[{"attributes":{"NORMAL":22,"POSITION":92,"TANGENT":21,"TEXCOORD_0":23},"indices":24,"material":22,"mode":4}]},{"name":"Centre20","primitives":[{"attributes":{"NORMAL":29,"POSITION":91,"TANGENT":28,"TEXCOORD_0":30},"indices":31,"material":23,"mode":4}]},{"name":"Arm120","primitives":[{"attributes":{"NORMAL":22,"POSITION":92,"TANGENT":21,"TEXCOORD_0":23},"indices":24,"material":23,"mode":4}]},{"name":"Arm220","primitives":[{"attributes":{"NORMAL":22,"POSITION":92,"TANGENT":21,"TEXCOORD_0":23},"indices":24,"material":23,"mode":4}]},{"name":"Arm320","primitives":[{"attributes":{"NORMAL":22,"POSITION":92,"TANGENT":21,"TEXCOORD_0":23},"indices":24,"material":23,"mode":4}]},{"name":"Arm420","primitives":[{"attributes":{"NORMAL":22,"POSITION":92,"TANGENT":21,"TEXCOORD_0":23},"indices":24,"material":23,"mode":4}]},{"name":"Arm520","primitives":[{"attributes":{"NORMAL":22,"POSITION":92,"TANGENT":21,"TEXCOORD_0":23},"indices":24,"material":23,"mode":4}]},{"primitives":[{"attributes":{"NORMAL":40,"POSITION":93,"TANGENT":39,"TEXCOORD_0":41},"indices":42,"material":25,"mode":4}]},{"primitives":[{"attributes":{"NORMAL":40,"POSITION":94,"TANGENT":39,"TEXCOORD_0":41},"indices":42,"material":26,"mode":4}]},{"primitives":[{"attributes":{"NORMAL":40,"POSITION":94,"TANGENT":39,"TEXCOORD_0":41},"indices":42,"material":26,"mode":4}]},{"primitives":[{"attributes":{"NORMAL":40,"POSITION":94,"TANGENT":39,"TEXCOORD_0":41},"indices":42,"material":26,"mode":4}]},{"primitives":[{"attributes":{"NORMAL":40,"POSITION":94,"TANGENT":39,"TEXCOORD_0":41},"indices":42,"material":26,"mode":4}]},{"primitives":[{"attributes":{"NORMAL":97,"POSITION":95,"TANGENT":96,"TEXCOORD_0":98},"indices":99,"material":25,"mode":4}]},{"primitives":[{"attributes":{"NORMAL":97,"POSITION":95,"TANGENT":96,"TEXCOORD_0":98},"indices":99,"material":25,"mode":4}]},{"primitives":[{"attributes":{"NORMAL":97,"POSITION":100,"TANGENT":96,"TEXCOORD_0":98},"indices":99,"material":25,"mode":4}]}],"nodes":[{"children":[1,2,3,14,15,16,17,18,19,20,22,23,24,25,34,35,36,37,38,39,40,41,42,43,44,48,52,56,60,64,68,72,76,80,84,88,92,96,100,104,108,112,116,123,130,136,138,140,145,152,159,163,170,177,184,191,198,205,212,219,226,233,234,235,247],"name":"reef"},{"name":"WorldEnvironment"},{"extensions":{"KHR_lights_punctual":{"light":0}},"name":"DirectionalLight3D","rotation":[-0.5,0.0,0.0,0.8660253882408142],"translation":[0.0,22.0,0.0]},{"children":[4,5,6,7,8,9,10,11,12,13],"mesh":0,"name":"Seafloor2","translation":[0.0,-1.0,0.0]},{"name":"MoundA","scale":[2.4000000953674316,0.6000000238418579,2.4000000953674316],"translation":[6.0,0.5,10.0]},{"name":"MoundB","scale":[3.200000047683716,0.800000011920929,3.0],"translation":[-22.0,0.5,0.0]},{"name":"MoundC","scale":[2.799999952316284,0.699999988079071,2.5999999046325684],"translation":[22.0,0.5,-5.0]},{"name":"MoundD","rotation":[0.0,-0.09983179718255997,0.0,0.9950043559074402],"scale":[1.0000102519989014,1.0,1.0000102519989014],"translation":[-3.0,0.4000000059604645,-22.0]},{"name":"MoundE","scale":[2.200000047683716,0.550000011920929,2.200000047683716],"translation":[12.0,0.5,20.0]},{"name":"MoundF","scale":[2.5999999046325684,0.699999988079071,2.4000000953674316],"translation":[-10.0,0.5,0.0]},{"name":"MoundG","rotation":[0.0,0.258819043636322,0.0,0.9659258127212524],"translation":[20.0,0.4000000059604645,-20.0]},{"name":"DepressionA","scale":[2.4000000953674316,1.2000000476837158,2.4000000953674316],"translation":[8.0,0.699999988079071,-2.0]},{"name":"DepressionB","scale":[2.0,1.0,2.0],"translation":[-2.0,0.699999988079071,8.0]},{"name":"DepressionC","scale":[2.5999999046325684,1.2999999523162842,2.5999999046325684],"translation":[-16.0,0.699999988079071,-8.0]},{"name":"KelpForest"},{"name":"FishSchoolA","translation":[10.0,6.0,-8.0]},{"name":"FishSchoolB","translation":[-12.0,7.0,-6.0]},{"name":"FishSchoolC","translation":[0.0,5.0,12.0]},{"name":"FishSchoolD","translation":[-6.0,4.0,14.0]},{"mesh":1,"name":"WaterSurface","translation":[0.0,18.0,0.0]},{"children":[21],"name":"CloudOverlay"},{"mesh":2,"name":"Dome"},{"name":"SurfaceTransition"},{"extensions":{"KHR_lights_punctual":{"light":1}},"name":"Caustics","rotation":[0.7071067690849304,0.0,0.0,0.7071067690849304],"translation":[0.0,22.0,0.0]},{"name":"AmbientAudio"},{"children":[26],"name":"Treasure","translation":[-8.782501220703125,-0.5225273370742798,4.671675682067871]},{"children":[27,28,29,30,31,32,33],"extensions":{"OMI_physics_body":{"motion":{"type":"static"}}},"name":"TreasureChest"},{"mesh":3,"name":"Body2","translation":[0.0,0.3199999928474426,0.0]},{"mesh":4,"name":"Trim12","translation":[0.0,0.3199999928474426,0.4350000023841858]},{"mesh":5,"name":"Trim22","translation":[0.0,0.3199999928474426,-0.4350000023841858]},{"mesh":6,"name":"Lid2","rotation":[0.17364804446697235,0.0,0.0,0.9848077893257141],"translation":[0.0,0.7799999713897705,-0.05000000074505806]},{"mesh":7,"name":"Lock2","rotation":[0.7071067690849304,0.0,0.0,0.7071067690849304],"translation":[0.0,0.4000000059604645,-0.4399999976158142]},{"mesh":8,"name":"GlowFill2","translation":[0.0,0.550000011920929,0.0]},{"extensions":{"OMI_physics_body":{"collider":{"shape":0}}},"name":"Collision","translation":[0.0,0.41999998688697815,0.0]},{"mesh":9,"name":"Rock12","scale":[2.200000047683716,1.399999976158142,2.200000047683716],"translation":[-8.0,0.0,-6.0]},{"mesh":10,"name":"Rock22","scale":[1.600000023841858,1.100000023841858,1.600000023841858],"translation":[9.0,0.0,4.0]},{"mesh":11,"name":"RockA2","scale":[1.399999976158142,0.8999999761581421,1.2000000476837158],"translation":[-15.0,0.0,8.0]},{"mesh":12,"name":"RockB2","scale":[2.0,1.0,1.600000023841858],"translation":[-12.0,0.0,-14.0]},{"mesh":13,"name":"RockC2","scale":[1.0,0.6000000238418579,1.0],"translation":[4.0,0.10000000149011612,-16.0]},{"mesh":14,"name":"RockD2","scale":[1.600000023841858,1.2000000476837158,1.399999976158142],"translation":[15.0,0.0,-10.0]},{"mesh":15,"name":"RockE2","scale":[1.2000000476837158,0.800000011920929,1.5],"translation":[18.0,0.0,8.0]},{"mesh":16,"name":"RockF2","scale":[0.8999999761581421,0.699999988079071,1.100000023841858],"translation":[-18.0,0.0,-4.0]},{"mesh":17,"name":"RockG2","scale":[1.5,0.8999999761581421,1.2000000476837158],"translation":[0.0,0.0,18.0]},{"mesh":18,"name":"RockH2","scale":[0.699999988079071,0.5,0.800000011920929],"translation":[-4.0,0.10000000149011612,14.0]},{"children":[45],"name":"Coral","translation":[-3.2109999656677246,0.0,-6.735000133514404]},{"children":[46,47],"extensions":{"OMI_physics_body":{"motion":{"type":"static"}}},"name":"Coral1","translation":[0.0,0.20000000298023224,0.0]},{"mesh":19,"name":"Mesh","scale":[1.0,1.2999999523162842,1.0]},{"extensions":{"OMI_physics_body":{"collider":{"shape":1}}},"name":"Collision2"},{"children":[49],"name":"Coral2","translation":[-15.239927291870117,0.0,-7.834318161010742]},{"children":[50,51],"extensions":{"OMI_physics_body":{"motion":{"type":"static"}}},"name":"Coral12","translation":[0.0,0.20000000298023224,0.0]},{"mesh":20,"name":"Mesh2","scale":[1.0,1.2999999523162842,1.0]},{"extensions":{"OMI_physics_body":{"collider":{"shape":1}}},"name":"Collision3"},{"children":[53],"name":"Coral4","translation":[7.262457370758057,0.0,-2.046989679336548]},{"children":[54,55],"extensions":{"OMI_physics_body":{"motion":{"type":"static"}}},"name":"Coral13","translation":[0.0,0.20000000298023224,0.0]},{"mesh":21,"name":"Mesh3","scale":[1.0,1.2999999523162842,1.0]},{"extensions":{"OMI_physics_body":{"collider":{"shape":1}}},"name":"Collision4"},{"children":[57],"name":"Coral6","translation":[2.01346492767334,0.0,8.068710327148438]},{"children":[58,59],"extensions":{"OMI_physics_body":{"motion":{"type":"static"}}},"name":"Coral14","translation":[0.0,0.20000000298023224,0.0]},{"mesh":22,"name":"Mesh4","scale":[1.0,1.2999999523162842,1.0]},{"extensions":{"OMI_physics_body":{"collider":{"shape":1}}},"name":"Collision5"},{"children":[61],"name":"Coral8","translation":[-5.539462566375732,0.0,15.735170364379883]},{"children":[62,63],"extensions":{"OMI_physics_body":{"motion":{"type":"static"}}},"name":"Coral15","translation":[0.0,0.20000000298023224,0.0]},{"mesh":23,"name":"Mesh5","scale":[1.0,1.2999999523162842,1.0]},{"extensions":{"OMI_physics_body":{"collider":{"shape":1}}},"name":"Collision6"},{"children":[65],"name":"Coral9","translation":[-11.072681427001953,0.0,12.310283660888672]},{"children":[66,67],"extensions":{"OMI_physics_body":{"motion":{"type":"static"}}},"name":"Coral16","translation":[0.0,0.20000000298023224,0.0]},{"mesh":24,"name":"Mesh6","scale":[1.0,1.2999999523162842,1.0]},{"extensions":{"OMI_physics_body":{"collider":{"shape":1}}},"name":"Collision7"},{"children":[69],"name":"Coral7","translation":[16.024938583374023,0.0,11.88107967376709]},{"children":[70,71],"extensions":{"OMI_physics_body":{"motion":{"type":"static"}}},"name":"Coral17","translation":[0.0,0.20000000298023224,0.0]},{"mesh":25,"name":"Mesh7","scale":[1.0,1.2999999523162842,1.0]},{"extensions":{"OMI_physics_body":{"collider":{"shape":1}}},"name":"Collision8"},{"children":[73],"name":"Coral5","translation":[13.187859535217285,0.0,-6.166385650634766]},{"children":[74,75],"extensions":{"OMI_physics_body":{"motion":{"type":"static"}}},"name":"Coral18","translation":[0.0,0.20000000298023224,0.0]},{"mesh":26,"name":"Mesh8","scale":[1.0,1.2999999523162842,1.0]},{"extensions":{"OMI_physics_body":{"collider":{"shape":1}}},"name":"Collision9"},{"children":[77],"name":"Kelp","translation":[-6.0,0.0,2.0]},{"children":[78,79],"extensions":{"OMI_physics_body":{"motion":{"type":"static"}}},"name":"Kelp1","translation":[0.0,1.5,0.0]},{"mesh":27,"name":"Mesh9"},{"extensions":{"OMI_physics_body":{"collider":{"shape":2}}},"name":"Collision10"},{"children":[81],"name":"Kelp3","translation":[6.0,0.0,-7.0]},{"children":[82,83],"extensions":{"OMI_physics_body":{"motion":{"type":"static"}}},"name":"Kelp12","translation":[0.0,1.5,0.0]},{"mesh":28,"name":"Mesh10"},{"extensions":{"OMI_physics_body":{"collider":{"shape":2}}},"name":"Collision11"},{"children":[85],"name":"Kelp8","translation":[18.0,0.0,-2.0]},{"children":[86,87],"extensions":{"OMI_physics_body":{"motion":{"type":"static"}}},"name":"Kelp13","translation":[0.0,1.5,0.0]},{"mesh":29,"name":"Mesh11"},{"extensions":{"OMI_physics_body":{"collider":{"shape":2}}},"name":"Collision12"},{"children":[89],"name":"Kelp4","translation":[10.0,0.0,14.0]},{"children":[90,91],"extensions":{"OMI_physics_body":{"motion":{"type":"static"}}},"name":"Kelp14","translation":[0.0,1.5,0.0]},{"mesh":30,"name":"Mesh12"},{"extensions":{"OMI_physics_body":{"collider":{"shape":2}}},"name":"Collision13"},{"children":[93],"name":"Kelp2","translation":[-6.0,0.0,2.0]},{"children":[94,95],"extensions":{"OMI_physics_body":{"motion":{"type":"static"}}},"name":"Kelp15","translation":[0.0,1.5,0.0]},{"mesh":31,"name":"Mesh13"},{"extensions":{"OMI_physics_body":{"collider":{"shape":2}}},"name":"Collision14"},{"children":[97],"name":"Kelp5","translation":[-13.0,0.0,5.0]},{"children":[98,99],"extensions":{"OMI_physics_body":{"motion":{"type":"static"}}},"name":"Kelp16","translation":[0.0,1.5,0.0]},{"mesh":32,"name":"Mesh14"},{"extensions":{"OMI_physics_body":{"collider":{"shape":2}}},"name":"Collision15"},{"children":[101],"name":"Kelp10","translation":[-17.0,0.0,1.0]},{"children":[102,103],"extensions":{"OMI_physics_body":{"motion":{"type":"static"}}},"name":"Kelp17","translation":[0.0,1.5,0.0]},{"mesh":33,"name":"Mesh15"},{"extensions":{"OMI_physics_body":{"collider":{"shape":2}}},"name":"Collision16"},{"children":[105],"name":"Kelp6","translation":[5.0,0.0,-8.0]},{"children":[106,107],"extensions":{"OMI_physics_body":{"motion":{"type":"static"}}},"name":"Kelp18","translation":[0.0,1.5,0.0]},{"mesh":34,"name":"Mesh16"},{"extensions":{"OMI_physics_body":{"collider":{"shape":2}}},"name":"Collision17"},{"children":[109],"name":"Kelp7","translation":[1.0,0.0,-14.0]},{"children":[110,111],"extensions":{"OMI_physics_body":{"motion":{"type":"static"}}},"name":"Kelp19","translation":[0.0,1.5,0.0]},{"mesh":35,"name":"Mesh17"},{"extensions":{"OMI_physics_body":{"collider":{"shape":2}}},"name":"Collision18"},{"children":[113],"name":"Kelp9","translation":[-8.0,0.0,-15.0]},{"children":[114,115],"extensions":{"OMI_physics_body":{"motion":{"type":"static"}}},"name":"Kelp110","translation":[0.0,1.5,0.0]},{"mesh":36,"name":"Mesh18"},{"extensions":{"OMI_physics_body":{"collider":{"shape":2}}},"name":"Collision19"},{"children":[117,118,119,120,121,122],"mesh":37,"name":"RockArchA2","rotation":[0.0,0.258819043636322,0.0,0.9659258127212524],"translation":[12.0,1.600000023841858,-2.0]},{"name":"OuterMass","scale":[1.600000023841858,1.0,1.2000000476837158]},{"name":"Lobe1","translation":[3.4000000953674316,1.600000023841858,0.5]},{"name":"Lobe2","translation":[-3.4000000953674316,1.5,-0.4000000059604645]},{"name":"Lobe3","translation":[0.0,2.5999999046325684,0.20000000298023224]},{"name":"Lobe4","translation":[1.7999999523162842,0.4000000059604645,1.600000023841858]},{"name":"Tunnel","rotation":[0.0,0.0,-0.7071067690849304,0.7071067690849304],"translation":[0.0,0.4000000059604645,0.0]},{"children":[124,125,126,127,128,129],"mesh":38,"name":"RockArchB2","rotation":[0.0,-0.4226182699203491,0.0,0.9063078165054321],"translation":[-7.0,1.5,11.0]},{"name":"OuterMass2","scale":[1.600000023841858,1.0,1.2000000476837158]},{"name":"Lobe12","translation":[3.4000000953674316,1.600000023841858,0.5]},{"name":"Lobe22","translation":[-3.4000000953674316,1.5,-0.4000000059604645]},{"name":"Lobe32","translation":[0.0,2.5999999046325684,0.20000000298023224]},{"name":"Lobe42","translation":[1.7999999523162842,0.4000000059604645,1.600000023841858]},{"name":"Tunnel2","rotation":[0.0,0.0,-0.7071067690849304,0.7071067690849304],"translation":[0.0,0.4000000059604645,0.0]},{"children":[131,132,133,134,135],"name":"WreckAnchor","rotation":[0.0,0.0,-0.6087613701820374,0.7933533787727356],"translation":[-6.400000095367432,0.30000001192092896,-7.199999809265137]},{"mesh":39,"name":"Ring2","rotation":[0.7071067094802856,0.0,0.0,0.7071068286895752],"translation":[0.0,1.100000023841858,0.0]},{"mesh":40,"name":"Shank2","translation":[0.0,0.44999998807907104,0.0]},{"mesh":41,"name":"Crossbar2","translation":[0.0,-0.20000000298023224,0.0]},{"mesh":42,"name":"FlukeL2","rotation":[0.0,0.0,-0.19509030878543854,0.9807853102684021],"translation":[-0.3799999952316284,-0.3199999928474426,0.0]},{"mesh":43,"name":"FlukeR2","rotation":[0.0,0.0,0.19509030878543854,0.9807853102684021],"translation":[0.3799999952316284,-0.3199999928474426,0.0]},{"children":[137],"name":"WreckPlankA","rotation":[0.0,-0.3583679795265198,0.0,0.9335803985595703],"translation":[3.5,0.03999999910593033,6.199999809265137]},{"mesh":44,"name":"Body4"},{"children":[139],"name":"WreckPlankB","rotation":[0.0,0.537299633026123,0.0,0.8433914184570313],"translation":[-11.0,0.03999999910593033,-8.5]},{"mesh":45,"name":"Body6"},{"children":[141,142,143,144],"name":"WreckBarrel","rotation":[0.0,0.0,-0.08715575188398361,0.9961947202682495],"translation":[11.0,-0.10000000149011612,1.0]},{"mesh":46,"name":"Body8"},{"mesh":47,"name":"BandTop2","rotation":[0.7071067094802856,0.0,0.0,0.7071068286895752],"translation":[0.0,0.41999998688697815,0.0]},{"mesh":48,"name":"BandMid2","rotation":[0.7071067094802856,0.0,0.0,0.7071068286895752]},{"mesh":49,"name":"BandBot2","rotation":[0.7071067094802856,0.0,0.0,0.7071068286895752],"translation":[0.0,-0.41999998688697815,0.0]},{"children":[146,147,148,149,150,151],"name":"WreckCrateA","rotation":[0.0,0.06975648552179337,0.0,0.9975640773773193],"translation":[14.0,0.3499999940395355,12.0]},{"mesh":50,"name":"Body10"},{"mesh":51,"name":"TrimXp2","translation":[0.36000001430511475,0.0,0.0]},{"mesh":52,"name":"TrimXm2","translation":[-0.36000001430511475,0.0,0.0]},{"mesh":53,"name":"TrimYp2","translation":[0.0,0.36000001430511475,0.0]},{"mesh":54,"name":"TrimZp2","translation":[0.0,0.0,0.36000001430511475]},{"mesh":55,"name":"TrimZm2","translation":[0.0,0.0,-0.36000001430511475]},{"children":[153,154,155,156,157,158],"name":"WreckCrateB","rotation":[0.0,-0.1736481636762619,0.0,0.9848077893257141],"translation":[14.100000381469727,1.0499999523162842,11.949999809265137]},{"mesh":56,"name":"Body12"},{"mesh":57,"name":"TrimXp4","translation":[0.36000001430511475,0.0,0.0]},{"mesh":58,"name":"TrimXm4","translation":[-0.36000001430511475,0.0,0.0]},{"mesh":59,"name":"TrimYp4","translation":[0.0,0.36000001430511475,0.0]},{"mesh":60,"name":"TrimZp4","translation":[0.0,0.0,0.36000001430511475]},{"mesh":61,"name":"TrimZm4","translation":[0.0,0.0,-0.36000001430511475]},{"children":[160,161,162],"mesh":62,"name":"WreckMast2","rotation":[0.0,0.0,-0.258819043636322,0.9659258127212524],"translation":[-15.0,-0.30000001192092896,-2.0]},{"name":"Shaft","translation":[0.0,1.5,0.0]},{"name":"Crack","translation":[0.07999999821186066,3.0,0.05999999865889549]},{"name":"Splinter","translation":[-0.10000000149011612,3.049999952316284,-0.03999999910593033]},{"children":[164,165,166,167,168,169],"name":"StarfishA","rotation":[0.0,-0.25881916284561157,0.0,0.9659258127212524],"translation":[4.0,-0.41999998688697815,1.0]},{"mesh":63,"name":"Centre2"},{"mesh":64,"name":"Arm12","translation":[0.0,0.0,-0.17499999701976776]},{"mesh":65,"name":"Arm22","rotation":[0.0,0.5877853035926819,0.0,0.8090169429779053],"translation":[0.16599999368190765,0.0,-0.05400000140070915]},{"mesh":66,"name":"Arm32","rotation":[0.0,0.9510565400123596,0.0,0.3090168833732605],"translation":[0.10300000011920929,0.0,0.1420000046491623]},{"mesh":67,"name":"Arm42","rotation":[0.0,0.9510565400123596,0.0,-0.3090168833732605],"translation":[-0.10300000011920929,0.0,0.1420000046491623]},{"mesh":68,"name":"Arm52","rotation":[0.0,-0.5877853035926819,0.0,0.8090169429779053],"translation":[-0.16599999368190765,0.0,-0.05400000140070915]},{"children":[171,172,173,174,175,176],"name":"StarfishB","scale":[1.100000023841858,1.0,1.100000023841858],"translation":[-2.0,-0.41999998688697815,5.0]},{"mesh":69,"name":"Centre4"},{"mesh":70,"name":"Arm14","translation":[0.0,0.0,-0.17499999701976776]},{"mesh":71,"name":"Arm24","rotation":[0.0,0.5877853035926819,0.0,0.8090169429779053],"translation":[0.16599999368190765,0.0,-0.05400000140070915]},{"mesh":72,"name":"Arm34","rotation":[0.0,0.9510565400123596,0.0,0.3090168833732605],"translation":[0.10300000011920929,0.0,0.1420000046491623]},{"mesh":73,"name":"Arm44","rotation":[0.0,0.9510565400123596,0.0,-0.3090168833732605],"translation":[-0.10300000011920929,0.0,0.1420000046491623]},{"mesh":74,"name":"Arm54","rotation":[0.0,-0.5877853035926819,0.0,0.8090169429779053],"translation":[-0.16599999368190765,0.0,-0.05400000140070915]},{"children":[178,179,180,181,182,183],"name":"StarfishC","rotation":[0.0,0.3826834559440613,0.0,0.9238795638084412],"translation":[9.0,-0.41999998688697815,-8.0]},{"mesh":75,"name":"Centre6"},{"mesh":76,"name":"Arm16","translation":[0.0,0.0,-0.17499999701976776]},{"mesh":77,"name":"Arm26","rotation":[0.0,0.5877853035926819,0.0,0.8090169429779053],"translation":[0.16599999368190765,0.0,-0.05400000140070915]},{"mesh":78,"name":"Arm36","rotation":[0.0,0.9510565400123596,0.0,0.3090168833732605],"translation":[0.10300000011920929,0.0,0.1420000046491623]},{"mesh":79,"name":"Arm46","rotation":[0.0,0.9510565400123596,0.0,-0.3090168833732605],"translation":[-0.10300000011920929,0.0,0.1420000046491623]},{"mesh":80,"name":"Arm56","rotation":[0.0,-0.5877853035926819,0.0,0.8090169429779053],"translation":[-0.16599999368190765,0.0,-0.05400000140070915]},{"children":[185,186,187,188,189,190],"name":"StarfishD","scale":[0.8999999761581421,1.0,0.8999999761581421],"translation":[-6.0,-0.41999998688697815,-2.0]},{"mesh":81,"name":"Centre8"},{"mesh":82,"name":"Arm18","translation":[0.0,0.0,-0.17499999701976776]},{"mesh":83,"name":"Arm28","rotation":[0.0,0.5877853035926819,0.0,0.8090169429779053],"translation":[0.16599999368190765,0.0,-0.05400000140070915]},{"mesh":84,"name":"Arm38","rotation":[0.0,0.9510565400123596,0.0,0.3090168833732605],"translation":[0.10300000011920929,0.0,0.1420000046491623]},{"mesh":85,"name":"Arm48","rotation":[0.0,0.9510565400123596,0.0,-0.3090168833732605],"translation":[-0.10300000011920929,0.0,0.1420000046491623]},{"mesh":86,"name":"Arm58","rotation":[0.0,-0.5877853035926819,0.0,0.8090169429779053],"translation":[-0.16599999368190765,0.0,-0.05400000140070915]},{"children":[192,193,194,195,196,197],"name":"StarfishE","scale":[1.0499999523162842,1.0,1.0499999523162842],"translation":[12.0,-0.41999998688697815,9.0]},{"mesh":87,"name":"Centre10"},{"mesh":88,"name":"Arm110","translation":[0.0,0.0,-0.17499999701976776]},{"mesh":89,"name":"Arm210","rotation":[0.0,0.5877853035926819,0.0,0.8090169429779053],"translation":[0.16599999368190765,0.0,-0.05400000140070915]},{"mesh":90,"name":"Arm310","rotation":[0.0,0.9510565400123596,0.0,0.3090168833732605],"translation":[0.10300000011920929,0.0,0.1420000046491623]},{"mesh":91,"name":"Arm410","rotation":[0.0,0.9510565400123596,0.0,-0.3090168833732605],"translation":[-0.10300000011920929,0.0,0.1420000046491623]},{"mesh":92,"name":"Arm510","rotation":[0.0,-0.5877853035926819,0.0,0.8090169429779053],"translation":[-0.16599999368190765,0.0,-0.05400000140070915]},{"children":[199,200,201,202,203,204],"name":"StarfishF","rotation":[0.0,0.25881916284561157,0.0,0.9659258127212524],"translation":[-13.0,-0.41999998688697815,3.0]},{"mesh":93,"name":"Centre12"},{"mesh":94,"name":"Arm112","translation":[0.0,0.0,-0.17499999701976776]},{"mesh":95,"name":"Arm212","rotation":[0.0,0.5877853035926819,0.0,0.8090169429779053],"translation":[0.16599999368190765,0.0,-0.05400000140070915]},{"mesh":96,"name":"Arm312","rotation":[0.0,0.9510565400123596,0.0,0.3090168833732605],"translation":[0.10300000011920929,0.0,0.1420000046491623]},{"mesh":97,"name":"Arm412","rotation":[0.0,0.9510565400123596,0.0,-0.3090168833732605],"translation":[-0.10300000011920929,0.0,0.1420000046491623]},{"mesh":98,"name":"Arm512","rotation":[0.0,-0.5877853035926819,0.0,0.8090169429779053],"translation":[-0.16599999368190765,0.0,-0.05400000140070915]},{"children":[206,207,208,209,210,211],"name":"StarfishG","scale":[0.949999988079071,1.0,0.949999988079071],"translation":[0.0,-0.41999998688697815,-10.0]},{"mesh":99,"name":"Centre14"},{"mesh":100,"name":"Arm114","translation":[0.0,0.0,-0.17499999701976776]},{"mesh":101,"name":"Arm214","rotation":[0.0,0.5877853035926819,0.0,0.8090169429779053],"translation":[0.16599999368190765,0.0,-0.05400000140070915]},{"mesh":102,"name":"Arm314","rotation":[0.0,0.9510565400123596,0.0,0.3090168833732605],"translation":[0.10300000011920929,0.0,0.1420000046491623]},{"mesh":103,"name":"Arm414","rotation":[0.0,0.9510565400123596,0.0,-0.3090168833732605],"translation":[-0.10300000011920929,0.0,0.1420000046491623]},{"mesh":104,"name":"Arm514","rotation":[0.0,-0.5877853035926819,0.0,0.8090169429779053],"translation":[-0.16599999368190765,0.0,-0.05400000140070915]},{"children":[213,214,215,216,217,218],"name":"StarfishH","rotation":[0.0,-0.25881916284561157,0.0,0.9659258127212524],"translation":[-4.0,-0.41999998688697815,-11.0]},{"mesh":105,"name":"Centre16"},{"mesh":106,"name":"Arm116","translation":[0.0,0.0,-0.17499999701976776]},{"mesh":107,"name":"Arm216","rotation":[0.0,0.5877853035926819,0.0,0.8090169429779053],"translation":[0.16599999368190765,0.0,-0.05400000140070915]},{"mesh":108,"name":"Arm316","rotation":[0.0,0.9510565400123596,0.0,0.3090168833732605],"translation":[0.10300000011920929,0.0,0.1420000046491623]},{"mesh":109,"name":"Arm416","rotation":[0.0,0.9510565400123596,0.0,-0.3090168833732605],"translation":[-0.10300000011920929,0.0,0.1420000046491623]},{"mesh":110,"name":"Arm516","rotation":[0.0,-0.5877853035926819,0.0,0.8090169429779053],"translation":[-0.16599999368190765,0.0,-0.05400000140070915]},{"children":[220,221,222,223,224,225],"name":"StarfishI","translation":[17.0,-0.41999998688697815,0.0]},{"mesh":111,"name":"Centre18"},{"mesh":112,"name":"Arm118","translation":[0.0,0.0,-0.17499999701976776]},{"mesh":113,"name":"Arm218","rotation":[0.0,0.5877853035926819,0.0,0.8090169429779053],"translation":[0.16599999368190765,0.0,-0.05400000140070915]},{"mesh":114,"name":"Arm318","rotation":[0.0,0.9510565400123596,0.0,0.3090168833732605],"translation":[0.10300000011920929,0.0,0.1420000046491623]},{"mesh":115,"name":"Arm418","rotation":[0.0,0.9510565400123596,0.0,-0.3090168833732605],"translation":[-0.10300000011920929,0.0,0.1420000046491623]},{"mesh":116,"name":"Arm518","rotation":[0.0,-0.5877853035926819,0.0,0.8090169429779053],"translation":[-0.16599999368190765,0.0,-0.05400000140070915]},{"children":[227,228,229,230,231,232],"name":"StarfishJ","rotation":[0.0,-0.3826834559440613,0.0,0.9238795638084412],"translation":[3.0,-0.41999998688697815,13.0]},{"mesh":117,"name":"Centre20"},{"mesh":118,"name":"Arm120","translation":[0.0,0.0,-0.17499999701976776]},{"mesh":119,"name":"Arm220","rotation":[0.0,0.5877853035926819,0.0,0.8090169429779053],"translation":[0.16599999368190765,0.0,-0.05400000140070915]},{"mesh":120,"name":"Arm320","rotation":[0.0,0.9510565400123596,0.0,0.3090168833732605],"translation":[0.10300000011920929,0.0,0.1420000046491623]},{"mesh":121,"name":"Arm420","rotation":[0.0,0.9510565400123596,0.0,-0.3090168833732605],"translation":[-0.10300000011920929,0.0,0.1420000046491623]},{"mesh":122,"name":"Arm520","rotation":[0.0,-0.5877853035926819,0.0,0.8090169429779053],"translation":[-0.16599999368190765,0.0,-0.05400000140070915]},{"name":"MarineSnow","translation":[0.0,8.0,0.0]},{"name":"Home","translation":[0.0,2.0,0.0]},{"children":[236,237,246],"extensions":{"OMI_physics_body":{"motion":{"type":"kinematic"}}},"name":"Gemini","translation":[-4.0,2.0,-4.0]},{"extensions":{"OMI_physics_body":{"collider":{"shape":3}}},"name":"Collision20"},{"children":[238,239,240,241,242,243,244,245],"name":"Body13"},{"mesh":123,"name":"Hull","scale":[1.100000023841858,0.550000011920929,1.5]},{"mesh":124,"name":"EyeUL","translation":[-0.18000000715255737,0.11999999731779099,-0.6200000047683716]},{"mesh":125,"name":"EyeUR","translation":[0.18000000715255737,0.11999999731779099,-0.6200000047683716]},{"mesh":126,"name":"EyeLL","translation":[-0.4000000059604645,-0.05000000074505806,-0.550000011920929]},{"mesh":127,"name":"EyeLR","translation":[0.4000000059604645,-0.05000000074505806,-0.550000011920929]},{"mesh":128,"name":"FinL","rotation":[0.0,-0.1726611852645874,0.0,0.9849812984466553],"scale":[0.9995999336242676,1.0,0.9995999336242676],"translation":[-0.6000000238418579,0.0,0.10000000149011612]},{"mesh":129,"name":"FinR","rotation":[0.0,0.1726611852645874,0.0,0.9849812984466553],"scale":[0.9995999336242676,1.0,0.9995999336242676],"translation":[0.6000000238418579,0.0,0.10000000149011612]},{"mesh":130,"name":"Tail","translation":[0.0,0.0,0.75]},{"name":"CamTarget","translation":[0.0,1.2000000476837158,2.200000047683716]},{"children":[248,249,250],"extensions":{"OMI_physics_body":{"motion":{"type":"kinematic"}}},"name":"PlayerRig","translation":[6.0,3.0,9.0]},{"extensions":{"OMI_physics_body":{"collider":{"shape":4}}},"name":"Collision21"},{"camera":0,"name":"Camera3D"},{"name":"Probe"}],"scene":0,"scenes":[{"nodes":[0]}]}